<svg xmlns="http://www.w3.org/2000/svg" viewBox="0 0 780 470" width="780" height="470" font-family="Noto Sans CJK KR, Noto Sans, sans-serif"><rect width="780" height="470" fill="none"/><defs><marker id="a" viewBox="0 0 10 10" refX="9" refY="5" markerWidth="7" markerHeight="7" orient="auto-start-reverse"><path d="M0,0 L10,5 L0,10 z" fill="#111"/></marker><pattern id="hatch" width="6" height="6" patternUnits="userSpaceOnUse" patternTransform="rotate(45)"><line x1="0" y1="0" x2="0" y2="6" stroke="#111" stroke-width="1" opacity="0.35"/></pattern></defs><text x="390.0" y="22" font-size="14" font-weight="bold" text-anchor="middle" fill="#111">the memory ladder --- the steps, actually measured</text><line x1="90" y1="340" x2="710" y2="340" stroke="#111" stroke-width="1.4"/><line x1="90" y1="60" x2="90" y2="340" stroke="#111" stroke-width="1.4"/><line x1="86" y1="340.0" x2="90" y2="340.0" stroke="#111" stroke-width="1"/><text x="82" y="344.0" font-size="9" font-weight="normal" text-anchor="end" fill="#111">0</text><line x1="86" y1="282.4775534059965" x2="90" y2="282.4775534059965" stroke="#111" stroke-width="1"/><text x="82" y="286.4775534059965" font-size="9" font-weight="normal" text-anchor="end" fill="#111">20</text><line x1="86" y1="224.955106811993" x2="90" y2="224.955106811993" stroke="#111" stroke-width="1"/><text x="82" y="228.955106811993" font-size="9" font-weight="normal" text-anchor="end" fill="#111">40</text><line x1="86" y1="167.4326602179895" x2="90" y2="167.4326602179895" stroke="#111" stroke-width="1"/><text x="82" y="171.4326602179895" font-size="9" font-weight="normal" text-anchor="end" fill="#111">60</text><line x1="86" y1="109.91021362398604" x2="90" y2="109.91021362398604" stroke="#111" stroke-width="1"/><text x="82" y="113.91021362398604" font-size="9" font-weight="normal" text-anchor="end" fill="#111">80</text><text x="30" y="200.0" font-size="10" font-weight="bold" text-anchor="middle" fill="#111">ns</text><text x="400.0" y="378" font-size="10" font-weight="bold" text-anchor="middle" fill="#111">working set size (doubling)</text><line x1="214.0" y1="60" x2="214.0" y2="340" stroke="#888" stroke-width="1" stroke-dasharray="4 3"/><text x="214.0" y="54" font-size="9" font-weight="bold" text-anchor="middle" fill="#111">L1 32 KiB</text><line x1="338.0" y1="60" x2="338.0" y2="340" stroke="#888" stroke-width="1" stroke-dasharray="4 3"/><text x="338.0" y="54" font-size="9" font-weight="bold" text-anchor="middle" fill="#111">L2 256 KiB</text><line x1="586.0" y1="60" x2="586.0" y2="340" stroke="#888" stroke-width="1" stroke-dasharray="4 3"/><text x="586.0" y="54" font-size="9" font-weight="bold" text-anchor="middle" fill="#111">L3 16 MiB</text><polyline points="90.0,332.47318786317464 131.33333333333334,332.47318786317464 172.66666666666669,332.4559311291964 214.0,332.32362950203026 255.33333333333334,329.41299370437366 296.66666666666663,327.2213884891421 338.0,320.15763204739847 379.3333333333333,307.12592177152703 420.6666666666667,299.41216168327117 462.0,292.7999564472904 503.3333333333333,293.5592527423313 544.6666666666666,280.8496681673862 586.0,191.76753124958273 627.3333333333334,132.55104860338582 668.6666666666666,93.43003267480404 710.0,85.45454545454547" fill="none" stroke="#111" stroke-width="2.2"/><circle cx="90.0" cy="332.47318786317464" r="3" fill="#111"/><circle cx="131.33333333333334" cy="332.47318786317464" r="3" fill="#111"/><circle cx="172.66666666666669" cy="332.4559311291964" r="3" fill="#111"/><circle cx="214.0" cy="332.32362950203026" r="3" fill="#111"/><circle cx="255.33333333333334" cy="329.41299370437366" r="3" fill="#111"/><circle cx="296.66666666666663" cy="327.2213884891421" r="3" fill="#111"/><circle cx="338.0" cy="320.15763204739847" r="3" fill="#111"/><circle cx="379.3333333333333" cy="307.12592177152703" r="3" fill="#111"/><circle cx="420.6666666666667" cy="299.41216168327117" r="3" fill="#111"/><circle cx="462.0" cy="292.7999564472904" r="3" fill="#111"/><circle cx="503.3333333333333" cy="293.5592527423313" r="3" fill="#111"/><circle cx="544.6666666666666" cy="280.8496681673862" r="3" fill="#111"/><circle cx="586.0" cy="191.76753124958273" r="3" fill="#111"/><circle cx="627.3333333333334" cy="132.55104860338582" r="3" fill="#111"/><circle cx="668.6666666666666" cy="93.43003267480404" r="3" fill="#111"/><circle cx="710.0" cy="85.45454545454547" r="3" fill="#111"/><polyline points="90.0,334.2908971755451 131.33333333333334,334.2563837075887 172.66666666666669,334.23912697361055 214.0,334.4001898240738 255.33333333333334,334.50085410561326 296.66666666666663,334.503730227943 338.0,334.5094824726024 379.3333333333333,334.32253452117186 420.6666666666667,334.47209288231625 462.0,334.32253452117186 503.3333333333333,334.14996718138985 544.6666666666666,334.4347032920302 586.0,334.1183298357631 627.3333333333334,333.86523107074953 668.6666666666666,334.06080738916916 710.0,334.06655963382855" fill="none" stroke="#111" stroke-width="1.4" stroke-dasharray="5 3"/><text x="114" y="250.0" font-size="9" font-weight="normal" text-anchor="start" fill="#111">the dashed line (sequential) hugs the floor --- 1.92 ns</text><line x1="240" y1="256.0" x2="420.6666666666667" y2="329.47209288231625" stroke="#111" stroke-width="1.6" marker-end="url(#a)"/><text x="90.0" y="358" font-size="9" font-weight="normal" text-anchor="middle" fill="#111">4 KiB</text><text x="214.0" y="358" font-size="9" font-weight="normal" text-anchor="middle" fill="#111">32 KiB</text><text x="338.0" y="358" font-size="9" font-weight="normal" text-anchor="middle" fill="#111">256 KiB</text><text x="420.6666666666667" y="358" font-size="9" font-weight="normal" text-anchor="middle" fill="#111">1 MiB</text><text x="586.0" y="358" font-size="9" font-weight="normal" text-anchor="middle" fill="#111">16 MiB</text><text x="710.0" y="358" font-size="9" font-weight="normal" text-anchor="middle" fill="#111">128 MiB</text><text x="110" y="80" font-size="10" font-weight="normal" text-anchor="start" fill="#111">solid = random access (pointer chasing) --- the latency shows</text><text x="110" y="98" font-size="10" font-weight="normal" text-anchor="start" fill="#111">dashed = sequential --- prefetching hides the latency</text><rect x="90" y="402" width="620" height="48" fill="none" stroke="#111" stroke-width="1.6" stroke-dasharray="4 3"/><text x="390.0" y="422" font-size="11" font-weight="bold" text-anchor="middle" fill="#111">innermost 2.62 ns -&gt; outermost 88.5 ns --- 34 times</text><text x="390.0" y="440" font-size="10" font-weight="normal" text-anchor="middle" fill="#111">same code, same instruction count --- only where the data sits has changed</text></svg>